<svg xmlns="http://www.w3.org/2000/svg" viewBox="0 0 60 40" width="60" height="40">
  <rect width="60" height="40" fill="#B22234"/>
  <rect y="3.08" width="60" height="3.08" fill="#fff"/>
  <rect y="9.23" width="60" height="3.08" fill="#fff"/>
  <rect y="15.38" width="60" height="3.08" fill="#fff"/>
  <rect y="21.54" width="60" height="3.08" fill="#fff"/>
  <rect y="27.69" width="60" height="3.08" fill="#fff"/>
  <rect y="33.85" width="60" height="3.08" fill="#fff"/>
  <rect width="24" height="21.54" fill="#3C3B6E"/>
  <g fill="#fff" font-size="3">
    <circle cx="4" cy="3.5" r="1.2"/><circle cx="8" cy="3.5" r="1.2"/><circle cx="12" cy="3.5" r="1.2"/><circle cx="16" cy="3.5" r="1.2"/><circle cx="20" cy="3.5" r="1.2"/>
    <circle cx="6" cy="6.5" r="1.2"/><circle cx="10" cy="6.5" r="1.2"/><circle cx="14" cy="6.5" r="1.2"/><circle cx="18" cy="6.5" r="1.2"/>
    <circle cx="4" cy="9.5" r="1.2"/><circle cx="8" cy="9.5" r="1.2"/><circle cx="12" cy="9.5" r="1.2"/><circle cx="16" cy="9.5" r="1.2"/><circle cx="20" cy="9.5" r="1.2"/>
    <circle cx="6" cy="12.5" r="1.2"/><circle cx="10" cy="12.5" r="1.2"/><circle cx="14" cy="12.5" r="1.2"/><circle cx="18" cy="12.5" r="1.2"/>
    <circle cx="4" cy="15.5" r="1.2"/><circle cx="8" cy="15.5" r="1.2"/><circle cx="12" cy="15.5" r="1.2"/><circle cx="16" cy="15.5" r="1.2"/><circle cx="20" cy="15.5" r="1.2"/>
    <circle cx="6" cy="18.5" r="1.2"/><circle cx="10" cy="18.5" r="1.2"/><circle cx="14" cy="18.5" r="1.2"/><circle cx="18" cy="18.5" r="1.2"/>
  </g>
</svg>
