<svg width="2467" height="708" viewBox="0 0 2467 708" fill="none" xmlns="http://www.w3.org/2000/svg">
<path d="M2466.91 636.796C2466.91 646.12 2465.07 655.352 2461.5 663.965C2457.93 672.578 2452.69 680.403 2446.1 686.992C2439.5 693.581 2431.67 698.806 2423.05 702.367C2414.43 705.928 2405.19 707.755 2395.87 707.745H71.1291C52.2873 707.764 34.2092 700.302 20.8705 686.998C7.53169 673.694 0.0245489 655.638 0 636.801V71.0365C0.0245376 52.1912 7.52871 34.1258 20.8648 20.807C34.2009 7.48828 52.2788 0.00488928 71.1291 1.50992e-07H2395.85C2405.18 -0.000608102 2414.42 1.83649 2423.04 5.40636C2431.66 8.97624 2439.5 14.2089 2446.09 20.8056C2452.69 27.4023 2457.92 35.2336 2461.49 43.8523C2465.06 52.4711 2466.9 61.7084 2466.89 71.0365L2466.91 636.796Z" fill="black"/>
</svg>
