<svg width="106" height="168" viewBox="0 0 106 168" fill="none" xmlns="http://www.w3.org/2000/svg">
<g filter="url(#filter0_d_1260_369)">
<path d="M49.8 32.8C49.8 31.1431 51.1431 29.8 52.8 29.8H74.8C76.4568 29.8 77.8 31.1431 77.8 32.8V126.8C77.8 128.457 76.4568 129.8 74.8 129.8H52.8C51.1431 129.8 49.8 128.457 49.8 126.8V105.852C49.8 105.171 49.5681 104.51 49.1426 103.978L40.4574 93.1217C40.0318 92.5898 39.8 91.9289 39.8 91.2476V79.8V68.3523C39.8 67.6711 40.0318 67.0102 40.4574 66.4782L49.1426 55.6217C49.5681 55.0898 49.8 54.4289 49.8 53.7476V32.8Z" fill="white"/>
</g>
<defs>
<filter id="filter0_d_1260_369" x="-1.14441e-05" y="-1.14441e-05" width="105.6" height="167.6" filterUnits="userSpaceOnUse" color-interpolation-filters="sRGB">
<feFlood flood-opacity="0" result="BackgroundImageFix"/>
<feColorMatrix in="SourceAlpha" type="matrix" values="0 0 0 0 0 0 0 0 0 0 0 0 0 0 0 0 0 0 127 0" result="hardAlpha"/>
<feOffset dx="-6" dy="4"/>
<feGaussianBlur stdDeviation="16.9"/>
<feComposite in2="hardAlpha" operator="out"/>
<feColorMatrix type="matrix" values="0 0 0 0 0 0 0 0 0 0 0 0 0 0 0 0 0 0 0.25 0"/>
<feBlend mode="normal" in2="BackgroundImageFix" result="effect1_dropShadow_1260_369"/>
<feBlend mode="normal" in="SourceGraphic" in2="effect1_dropShadow_1260_369" result="shape"/>
</filter>
</defs>
</svg>
