<svg width="145" height="39" viewBox="0 0 145 39" fill="none" xmlns="http://www.w3.org/2000/svg">
<path d="M130.552 14.0798V14.0733L125.727 9.23358L120.908 14.0733L125.727 18.9129H125.733L125.727 18.9195L126.386 19.5818L131.211 14.7422L130.552 14.0798Z" fill="#1929FF"/>
<path d="M135.372 20.2445L131.213 24.4218L135.365 28.5992H135.372L130.553 33.4388L129.979 34.0159L134.797 38.8556L135.372 38.2851L140.19 33.4388H140.197L145.008 28.5992L136.031 19.5822L135.372 20.2445Z" fill="#1929FF"/>
<path d="M130.552 23.7595H130.546L126.386 19.5822L125.727 20.2445L121 24.9989L125.818 29.8386L131.211 24.4218L130.552 23.7595Z" fill="#1929FF"/>
<path d="M111.372 20.2445L107.213 24.4218L111.365 28.5992H111.372L106.553 33.4388L105.979 34.0159L110.797 38.8556L111.372 38.2851L116.19 33.4388H116.197L121.008 28.5992L112.031 19.5822L111.372 20.2445Z" fill="#1929FF"/>
<path d="M121.008 10.5583L116.19 5.71861L111.371 0.878932V0.872374L110.496 0.000183105L105.678 4.83986L106.546 5.71861H106.553L111.371 10.5583L107.212 14.7422L111.371 18.9195L112.031 19.5819L116.19 15.398L121.008 10.5583Z" fill="#1929FF"/>
<path d="M106.552 23.7595H106.546L102.386 19.5822L101.727 20.2445L97 24.9989L101.818 29.8386L107.211 24.4218L106.552 23.7595Z" fill="#1929FF"/>
<path d="M82.5517 14.0798V14.0733L77.7267 9.23358L72.9082 14.0733L77.7267 18.9129H77.7332L77.7267 18.9195L78.3861 19.5818L83.2111 14.7422L82.5517 14.0798Z" fill="#1929FF"/>
<path d="M87.3715 20.2445L83.2125 24.4218L87.365 28.5992H87.3715L82.5531 33.4388L81.9785 34.0159L86.797 38.8556L87.3715 38.2851L92.19 33.4388H92.1965L97.0085 28.5992L88.031 19.5822L87.3715 20.2445Z" fill="#1929FF"/>
<path d="M97.008 10.5583L92.1896 5.71861L87.3711 0.878932V0.872374L86.4962 0.000183105L81.6777 4.83986L82.5461 5.71861H82.5526L87.3711 10.5583L83.2121 14.7422L87.3711 18.9195L88.0305 19.5819L92.1896 15.398L97.008 10.5583Z" fill="#1929FF"/>
<path d="M57.5507 14.0798V14.0733L52.7257 9.23358L47.9072 14.0733L52.7257 18.9129H52.7322L52.7257 18.9195L53.3851 19.5818L58.2101 14.7422L57.5507 14.0798Z" fill="#1929FF"/>
<path d="M72.007 10.5583L67.1886 5.71861L62.3701 0.878932V0.872374L61.4952 0.000183105L56.6768 4.83986L57.5451 5.71861H57.5517L62.3701 10.5583L58.2111 14.7422L62.3701 18.9195L63.0296 19.5819L67.1886 15.398L72.007 10.5583Z" fill="#1929FF"/>
<path d="M57.5511 23.7595H57.5445L53.3855 19.5822L52.7261 20.2445L47.999 24.9989L52.8175 29.8386L58.2105 24.4218L57.5511 23.7595Z" fill="#1929FF"/>
<path d="M33.5517 14.0798V14.0733L28.7267 9.23358L23.9082 14.0733L28.7267 18.9129H28.7332L28.7267 18.9195L29.3861 19.5818L34.2111 14.7422L33.5517 14.0798Z" fill="#1929FF"/>
<path d="M38.3715 20.2445L34.2125 24.4218L38.365 28.5992H38.3715L33.5531 33.4388L32.9785 34.0159L37.797 38.8556L38.3715 38.2851L43.19 33.4388H43.1965L48.0085 28.5992L39.031 19.5822L38.3715 20.2445Z" fill="#1929FF"/>
<path d="M33.5521 23.7595H33.5455L29.3865 19.5822L28.7271 20.2445L24 24.9989L28.8185 29.8386L34.2115 24.4218L33.5521 23.7595Z" fill="#1929FF"/>
<path d="M14.3715 20.2445L10.2125 24.4218L14.365 28.5992H14.3715L9.55308 33.4388L8.97852 34.0159L13.797 38.8556L14.3715 38.2851L19.19 33.4388H19.1965L24.0085 28.5992L15.031 19.5822L14.3715 20.2445Z" fill="#1929FF"/>
<path d="M24.008 10.5582L19.1896 5.71852L14.3711 0.878841V0.872283L13.4962 9.15527e-05L8.67773 4.83977L9.5461 5.71852H9.55263L14.3711 10.5582L10.2121 14.7421L14.3711 18.9194L15.0305 19.5818L19.1896 15.3979L24.008 10.5582Z" fill="#1929FF"/>
<path d="M9.55205 23.7595H9.54552L5.38649 19.5822L4.72706 20.2445L0 24.9989L4.81846 29.8386L10.2115 24.4218L9.55205 23.7595Z" fill="#1929FF"/>
</svg>
