<svg width="2222" height="897" viewBox="0 0 2222 897" fill="none" xmlns="http://www.w3.org/2000/svg">
<g clip-path="url(#clip0_1519_5270)">
<path d="M227.704 548.495H227.55L129.346 452.058L113.775 467.348L2.15833 577.108L115.933 688.835L243.275 563.785L227.704 548.495Z" fill="white"/>
<path d="M569.028 243.742L455.253 132.014L341.478 20.2866V20.1352L320.82 0L207.045 111.728L227.55 132.014H227.704L341.478 243.742L243.274 340.33L341.478 436.767L357.049 452.058L455.253 355.469L569.028 243.742Z" fill="white"/>
<path d="M341.478 467.348L243.275 563.785L341.324 660.222H341.478L227.704 771.95L214.137 785.272L327.912 897L341.478 883.829L455.253 771.95H455.407L569.028 660.222L357.049 452.058L341.478 467.348Z" fill="white"/>
<path d="M227.704 325.04V324.888L113.775 213.161L0 324.888L113.775 436.616H113.929L113.775 436.767L129.346 452.058L243.275 340.33L227.704 325.04Z" fill="white"/>
<path d="M920.219 281.287C933.561 285.134 945.187 293.297 953.211 304.45C962.732 317.094 967.72 332.48 967.394 348.202C967.71 358.398 965.717 368.535 961.558 377.882C957.399 387.228 951.178 395.551 943.344 402.25C927.08 416.512 905.946 424.241 884.144 423.899H733.524V149.727H874.123C895.706 148.992 916.835 155.926 933.632 169.257C941.435 175.606 947.648 183.632 951.792 192.715C955.935 201.797 957.897 211.693 957.527 221.638C958.091 235.49 954.442 249.193 947.044 261C940.799 270.641 931.305 277.821 920.219 281.287ZM803.053 202.563V261H859.632C863.389 261.036 867.113 260.3 870.564 258.84C874.016 257.38 877.118 255.228 879.673 252.522C882.366 249.738 884.474 246.46 885.876 242.875C887.278 239.29 887.947 235.469 887.844 231.63C887.961 227.813 887.298 224.011 885.895 220.449C884.491 216.886 882.376 213.636 879.673 210.89C877.11 208.204 874.003 206.075 870.551 204.641C867.099 203.207 863.379 202.499 859.632 202.563H803.053ZM869.498 370.609C873.269 370.675 877.012 369.969 880.49 368.535C883.967 367.102 887.102 364.972 889.694 362.282C892.399 359.475 894.513 356.171 895.915 352.56C897.317 348.949 897.98 345.101 897.865 341.238C897.982 337.421 897.319 333.619 895.915 330.057C894.512 326.495 892.397 323.244 889.694 320.498C887.127 317.765 884.001 315.597 880.52 314.136C877.039 312.675 873.283 311.953 869.498 312.02H803.053V370.609H869.498Z" fill="white"/>
<path d="M1112 204.985C1128.78 204.835 1145.42 207.868 1161.03 213.917C1175.49 219.455 1188.54 228.033 1199.26 239.049C1210.33 250.597 1218.47 264.551 1223 279.773C1228.47 297.356 1230.46 315.805 1228.86 334.123H1059.28C1062.23 346.021 1069.05 356.651 1078.7 364.401C1088.01 371.971 1099.76 376.048 1111.85 375.907C1122.34 376.109 1132.64 373.215 1141.44 367.601C1150.23 361.987 1157.11 353.911 1161.18 344.418L1216.68 370.911C1206.62 388.361 1191.55 402.522 1173.36 411.636C1154.37 421.535 1133.2 426.732 1111.69 426.775C1095.96 426.934 1080.31 424.425 1065.44 419.357C1051.47 414.542 1038.51 407.256 1027.21 397.859C1016.43 388.237 1007.87 376.47 1002.08 363.342C995.674 348.575 992.371 332.689 992.371 316.637C992.371 300.586 995.674 284.7 1002.08 269.933C1008.08 256.517 1017.03 244.574 1028.29 234.961C1039.55 225.509 1052.52 218.217 1066.52 213.463C1081.06 208.052 1096.45 205.183 1112 204.985ZM1146.07 266.602C1136.43 258.895 1124.28 254.863 1111.85 255.248C1099.45 254.888 1087.32 258.857 1077.62 266.451C1068.09 274.512 1061.63 285.505 1059.28 297.637H1164.57C1162.12 285.548 1155.61 274.617 1146.07 266.602Z" fill="white"/>
<path d="M1610.42 146.548V423.899H1541.66V282.195L1447.47 360.465L1352.04 282.195V423.899H1282.51V146.548L1446.7 274.323L1610.42 146.548Z" fill="white"/>
<path d="M1644.49 208.467H1709.71V423.899H1644.49V208.467Z" fill="white"/>
<path d="M1896.25 423.899V315.956C1897.22 301.233 1893.79 286.552 1886.38 273.717C1882.9 268.963 1878.24 265.159 1872.85 262.669C1867.45 260.178 1861.49 259.083 1855.55 259.487C1848.86 259.081 1842.17 260.242 1836.03 262.874C1829.9 265.506 1824.48 269.534 1820.24 274.626C1811.42 286.602 1807.06 301.197 1807.91 315.956V423.899H1742.08V208.467H1803.75L1806.68 236.929C1819.01 215.734 1842.29 204.985 1876.82 204.985C1889.13 203.917 1901.51 205.957 1912.79 210.912C1924.07 215.867 1933.87 223.573 1941.26 233.296C1955.97 258.343 1962.78 287.108 1960.84 315.956V423.899H1896.25Z" fill="white"/>
<path d="M2084.17 204.985C2099.52 204.656 2114.76 207.547 2128.88 213.463C2140.45 218.172 2150.17 226.396 2156.63 236.929V130.954H2222V423.899H2160.33L2157.25 395.285C2151.27 406.103 2141.61 414.515 2129.96 419.054C2115.64 424.803 2100.25 427.537 2084.79 427.078C2066.65 427.297 2048.82 422.525 2033.3 413.301C2017.55 403.843 2004.79 390.266 1996.45 374.091C1987.17 356.307 1982.51 336.543 1982.89 316.561C1982.48 296.529 1987.14 276.71 1996.45 258.881C2004.83 242.69 2017.57 229.073 2033.3 219.519C2048.56 210.145 2066.17 205.114 2084.17 204.985ZM2102.06 372.274C2109.25 372.511 2116.41 371.289 2123.09 368.684C2129.78 366.079 2135.84 362.147 2140.91 357.135C2146.12 351.702 2150.17 345.299 2152.81 338.304C2155.46 331.31 2156.66 323.865 2156.32 316.41C2156.68 308.952 2155.5 301.5 2152.85 294.502C2150.2 287.504 2146.14 281.103 2140.91 275.685C2130.62 265.773 2116.78 260.221 2102.37 260.221C2087.95 260.221 2074.11 265.773 2063.82 275.685C2058.59 281.103 2054.53 287.504 2051.88 294.502C2049.23 301.5 2048.05 308.952 2048.41 316.41C2048.05 323.868 2049.23 331.32 2051.88 338.318C2054.53 345.316 2058.59 351.717 2063.82 357.135C2068.82 362.072 2074.78 365.96 2081.36 368.563C2087.93 371.165 2094.97 372.428 2102.06 372.274Z" fill="white"/>
<path d="M849.302 469.317C879.398 467.375 909.068 477.105 931.936 496.416C941.711 505.66 949.377 516.837 954.426 529.208C959.476 541.578 961.794 554.86 961.227 568.176C961.812 581.471 959.501 594.735 954.45 607.084C949.399 619.432 941.723 630.581 931.936 639.784C909.035 659.038 879.389 668.76 849.302 666.884H803.053V742.58H733.524V469.317H849.302ZM841.903 612.534C855.108 613.068 868.002 608.503 877.823 599.817C882.184 595.718 885.654 590.795 888.025 585.344C890.395 579.893 891.617 574.027 891.617 568.1C891.617 562.173 890.395 556.307 888.025 550.856C885.654 545.405 882.184 540.482 877.823 536.383C868.03 527.521 855.055 522.839 841.748 523.364H802.898V612.534H841.903Z" fill="white"/>
<path d="M1092.58 746.516C1076.83 746.623 1061.19 744.062 1046.33 738.946C1032.31 734.215 1019.34 726.921 1008.09 717.448C996.797 707.809 987.841 695.808 981.886 682.325C975.394 667.674 972.186 651.823 972.481 635.848C972.3 619.803 975.611 603.905 982.194 589.219C988.15 575.736 997.105 563.735 1008.4 554.096C1019.73 544.735 1032.68 537.453 1046.64 532.598C1076.3 522.504 1108.55 522.504 1138.21 532.598C1152.18 537.413 1165.14 544.699 1176.44 554.096C1187.68 563.751 1196.59 575.751 1202.5 589.219C1209.13 603.894 1212.5 619.792 1212.36 635.848C1212.51 651.857 1209.15 667.709 1202.5 682.325C1196.54 695.808 1187.59 707.809 1176.29 717.448C1165.06 726.951 1152.08 734.249 1138.06 738.946C1123.45 744 1108.07 746.56 1092.58 746.516ZM1053.57 676.724C1058.68 681.719 1064.78 685.638 1071.49 688.241C1078.19 690.844 1085.37 692.076 1092.58 691.863C1099.76 692.091 1106.92 690.865 1113.61 688.261C1120.29 685.656 1126.36 681.729 1131.43 676.724C1141.67 665.482 1147.33 650.93 1147.33 635.848C1147.33 620.766 1141.67 606.213 1131.43 594.972C1126.36 589.967 1120.29 586.04 1113.61 583.435C1106.92 580.831 1099.76 579.604 1092.58 579.833C1085.37 579.619 1078.19 580.852 1071.49 583.455C1064.78 586.058 1058.68 589.977 1053.57 594.972C1043.33 606.213 1037.67 620.766 1037.67 635.848C1037.67 650.93 1043.33 665.482 1053.57 676.724Z" fill="white"/>
<path d="M1539.97 528.511H1609.5L1541.66 743.185H1451.17L1409.39 608.143L1367.46 743.185H1276.5L1209.28 528.511H1279.58L1325.83 684.142L1375.32 528.511H1446.23L1496.03 684.142L1539.97 528.511Z" fill="white"/>
<path d="M1726.66 525.029C1743.43 524.83 1760.07 527.812 1775.69 533.81C1790.09 539.457 1803.12 548.02 1813.92 558.941C1824.99 570.575 1833.17 584.564 1837.82 599.817C1843.24 617.408 1845.18 635.858 1843.52 654.167H1673.94C1676.93 666.048 1683.74 676.665 1693.36 684.445C1702.65 692.212 1714.46 696.455 1726.66 696.405C1737.16 696.627 1747.47 693.742 1756.27 688.126C1765.07 682.509 1771.94 674.421 1776 664.915L1831.5 691.56C1821.45 708.893 1806.44 722.948 1788.33 731.982C1769.37 741.963 1748.18 747.165 1726.66 747.121C1710.92 747.217 1695.27 744.656 1680.41 739.552C1666.4 734.821 1653.43 727.527 1642.18 718.054C1630.92 708.441 1621.97 696.498 1615.97 683.082C1609.36 668.405 1606.05 652.501 1606.26 636.454C1606.07 620.359 1609.38 604.409 1615.97 589.673C1621.97 576.258 1630.92 564.314 1642.18 554.702C1653.46 545.125 1666.41 537.636 1680.41 532.598C1695.27 527.494 1710.92 524.933 1726.66 525.029ZM1760.73 586.494C1750.93 579.14 1738.93 575.156 1726.59 575.156C1714.25 575.156 1702.25 579.14 1692.44 586.494C1683.01 594.26 1676.55 604.934 1674.09 616.773H1779.23C1776.5 604.896 1769.83 594.245 1760.27 586.494H1760.73Z" fill="white"/>
<path d="M1874.05 528.511H1935.71L1938.64 553.793C1945.67 543.78 1955.61 536.078 1967.16 531.69C1981.22 526.853 1996.06 524.595 2010.95 525.029V579.379C1991.71 578.102 1972.63 583.457 1956.99 594.518C1951.03 599.633 1946.34 606.013 1943.27 613.174C1940.2 620.335 1938.82 628.089 1939.26 635.848V743.185H1874.05V528.511Z" fill="white"/>
<path d="M1677.18 183.488C1667.05 183.448 1657.35 179.479 1650.19 172.447C1643.02 165.414 1638.98 155.888 1638.94 145.942C1638.92 138.531 1641.14 131.281 1645.33 125.113C1649.51 118.944 1655.46 114.135 1662.44 111.296C1669.41 108.457 1677.08 107.717 1684.48 109.168C1691.88 110.62 1698.68 114.198 1704 119.449C1711.1 126.505 1715.08 136.024 1715.08 145.942C1715.08 155.861 1711.1 165.38 1704 172.436C1700.54 175.991 1696.38 178.808 1691.76 180.709C1687.15 182.611 1682.18 183.557 1677.18 183.488Z" fill="white"/>
</g>
<defs>
<clipPath id="clip0_1519_5270">
<rect width="2222" height="897" fill="white"/>
</clipPath>
</defs>
</svg>
