<svg preserveAspectRatio="none" width="100%" height="100%" overflow="visible" style="display: block;" viewBox="0 0 240 99" fill="none" xmlns="http://www.w3.org/2000/svg">
<g id="Capa 1">
<path id="Vector" d="M24.5945 60.5362H24.5778L13.9707 49.8927L12.2889 51.5803L0.233123 63.6942L12.522 76.0253L26.2763 62.2238L24.5945 60.5362Z" fill="var(--fill-0, #1929FF)"/>
<path id="Vector_2" d="M61.4612 26.9013L49.1723 14.5701L36.8834 2.23899V2.22228L34.652 0L22.3631 12.3311L24.5778 14.5701H24.5945L36.8834 26.9013L26.2763 37.5615L36.8834 48.2051L38.5652 49.8927L49.1723 39.2324L61.4612 26.9013Z" fill="var(--fill-0, #1929FF)"/>
<path id="Vector_3" d="M36.8834 51.5803L26.2763 62.2238L36.8667 72.8673H36.8834L24.5945 85.1985L23.1291 86.6689L35.418 99L36.8834 97.5463L49.1723 85.1985H49.1889L61.4612 72.8673L38.5652 49.8927L36.8834 51.5803Z" fill="var(--fill-0, #1929FF)"/>
<path id="Vector_4" d="M24.5945 35.8739V35.8572L12.2889 23.5261L0 35.8572L12.2889 48.1884H12.3056L12.2889 48.2051L13.9707 49.8927L26.2763 37.5615L24.5945 35.8739Z" fill="var(--fill-0, #1929FF)"/>
<path id="Vector_5" d="M99.3936 31.0451C100.835 31.4697 102.09 32.3706 102.957 33.6015C103.985 34.997 104.524 36.6951 104.489 38.4304C104.523 39.5556 104.308 40.6744 103.859 41.706C103.409 42.7376 102.737 43.6562 101.891 44.3954C100.135 45.9696 97.852 46.8226 95.4971 46.7848H79.2285V16.5251H94.4148C96.746 16.4439 99.0281 17.2093 100.842 18.6805C101.685 19.3813 102.356 20.2671 102.804 21.2695C103.251 22.2719 103.463 23.3641 103.423 24.4618C103.484 25.9906 103.09 27.503 102.291 28.8061C101.617 29.87 100.591 30.6625 99.3936 31.0451ZM86.7384 22.3565V28.8061H92.8495C93.2554 28.81 93.6576 28.7288 94.0303 28.5676C94.4031 28.4065 94.7382 28.169 95.0142 27.8704C95.3051 27.5631 95.5328 27.2013 95.6842 26.8056C95.8356 26.41 95.9079 25.9882 95.8968 25.5646C95.9094 25.1432 95.8378 24.7236 95.6862 24.3304C95.5346 23.9373 95.3061 23.5786 95.0142 23.2754C94.7374 22.979 94.4017 22.7441 94.0289 22.5858C93.6561 22.4275 93.2543 22.3494 92.8495 22.3565H86.7384ZM93.9152 40.9033C94.3225 40.9106 94.7268 40.8327 95.1024 40.6745C95.478 40.5163 95.8166 40.2812 96.0966 39.9843C96.3887 39.6745 96.6171 39.3098 96.7685 38.9113C96.92 38.5127 96.9915 38.0881 96.9791 37.6618C96.9917 37.2404 96.9201 36.8208 96.7685 36.4277C96.617 36.0345 96.3885 35.6758 96.0966 35.3727C95.8194 35.0711 95.4817 34.8318 95.1057 34.6705C94.7297 34.5093 94.324 34.4297 93.9152 34.437H86.7384V40.9033H93.9152Z" fill="var(--fill-0, white)"/>
<path id="Vector_6" d="M120.108 22.6238C121.92 22.6072 123.718 22.942 125.403 23.6096C126.965 24.2208 128.375 25.1675 129.533 26.3833C130.729 27.6579 131.607 29.198 132.097 30.878C132.688 32.8185 132.903 34.8548 132.73 36.8765H114.413C114.732 38.1896 115.469 39.3628 116.511 40.2182C117.517 41.0537 118.786 41.5037 120.092 41.4881C121.224 41.5103 122.338 41.191 123.288 40.5714C124.238 39.9518 124.98 39.0605 125.42 38.0127L131.415 40.9367C130.328 42.8626 128.7 44.4256 126.736 45.4314C124.684 46.524 122.398 47.0975 120.075 47.1023C118.375 47.1198 116.685 46.8429 115.079 46.2835C113.57 45.7522 112.171 44.948 110.95 43.9109C109.786 42.8489 108.86 41.5502 108.236 40.1013C107.544 38.4715 107.187 36.7182 107.187 34.9466C107.187 33.175 107.544 31.4217 108.236 29.7919C108.883 28.3113 109.85 26.9931 111.066 25.9322C112.283 24.889 113.684 24.0842 115.196 23.5595C116.766 22.9623 118.429 22.6456 120.108 22.6238ZM123.788 29.4243C122.747 28.5737 121.434 28.1287 120.092 28.1711C118.752 28.1314 117.443 28.5695 116.395 29.4076C115.366 30.2973 114.667 31.5106 114.413 32.8496H125.786C125.522 31.5153 124.818 30.3089 123.788 29.4243Z" fill="var(--fill-0, white)"/>
<path id="Vector_7" d="M173.943 16.1742V46.7848H166.516V31.1453L156.342 39.7838L146.035 31.1453V46.7848H138.525V16.1742L156.259 30.2765L173.943 16.1742Z" fill="var(--fill-0, white)"/>
<path id="Vector_8" d="M177.623 23.0081H184.667V46.7848H177.623V23.0081Z" fill="var(--fill-0, white)"/>
<path id="Vector_9" d="M204.815 46.7848V34.8714C204.92 33.2465 204.55 31.6261 203.749 30.2096C203.374 29.6848 202.87 29.2651 202.288 28.9902C201.705 28.7153 201.062 28.5944 200.419 28.639C199.697 28.5942 198.975 28.7223 198.312 29.0128C197.649 29.3034 197.064 29.7479 196.606 30.3099C195.653 31.6317 195.182 33.2425 195.274 34.8714V46.7848H188.163V23.0081H194.824L195.14 26.1494C196.473 23.8101 198.987 22.6238 202.717 22.6238C204.046 22.5059 205.384 22.7311 206.602 23.2779C207.82 23.8248 208.879 24.6752 209.677 25.7484C211.265 28.5128 212.001 31.6875 211.792 34.8714V46.7848H204.815Z" fill="var(--fill-0, white)"/>
<path id="Vector_10" d="M225.113 22.6238C226.771 22.5875 228.417 22.9065 229.942 23.5595C231.192 24.0792 232.242 24.9869 232.94 26.1494V14.4532H240V46.7848H233.339L233.006 43.6268C232.36 44.8207 231.317 45.7492 230.059 46.2501C228.512 46.8846 226.85 47.1863 225.18 47.1357C223.221 47.1599 221.294 46.6332 219.618 45.6152C217.917 44.5713 216.539 43.0729 215.639 41.2876C214.636 39.3249 214.132 37.1436 214.173 34.9382C214.129 32.7272 214.633 30.5399 215.639 28.5722C216.543 26.7852 217.92 25.2823 219.618 24.2278C221.267 23.1933 223.169 22.638 225.113 22.6238ZM227.045 41.0871C227.821 41.1133 228.595 40.9784 229.317 40.6909C230.039 40.4034 230.694 39.9694 231.241 39.4162C231.804 38.8166 232.241 38.1099 232.527 37.338C232.813 36.566 232.942 35.7443 232.906 34.9215C232.945 34.0984 232.817 33.276 232.531 32.5036C232.245 31.7312 231.806 31.0248 231.241 30.4268C230.13 29.3329 228.635 28.72 227.078 28.72C225.521 28.72 224.027 29.3329 222.915 30.4268C222.35 31.0248 221.912 31.7312 221.625 32.5036C221.339 33.276 221.212 34.0984 221.25 34.9215C221.212 35.7446 221.339 36.5671 221.625 37.3395C221.912 38.1118 222.35 38.8182 222.915 39.4162C223.455 39.9611 224.099 40.3902 224.809 40.6775C225.519 40.9647 226.28 41.1041 227.045 41.0871Z" fill="var(--fill-0, white)"/>
<path id="Vector_11" d="M91.7338 51.7975C94.9845 51.5832 98.1891 52.6571 100.659 54.7884C101.715 55.8087 102.543 57.0422 103.088 58.4075C103.634 59.7728 103.884 61.2387 103.823 62.7084C103.886 64.1757 103.636 65.6397 103.091 67.0026C102.545 68.3654 101.716 69.5958 100.659 70.6116C98.1856 72.7366 94.9835 73.8096 91.7338 73.6025H86.7384V81.957H79.2285V51.7975H91.7338ZM90.9346 67.6041C92.3609 67.663 93.7536 67.1592 94.8144 66.2005C95.2854 65.7482 95.6602 65.2048 95.9162 64.6032C96.1723 64.0016 96.3043 63.3542 96.3043 62.7C96.3043 62.0458 96.1723 61.3984 95.9162 60.7968C95.6602 60.1952 95.2854 59.6518 94.8144 59.1995C93.7566 58.2214 92.3552 57.7046 90.9179 57.7625H86.7217V67.6041H90.9346Z" fill="var(--fill-0, white)"/>
<path id="Vector_12" d="M118.01 82.3914C116.309 82.4032 114.62 82.1206 113.015 81.5559C111.501 81.0338 110.1 80.2288 108.885 79.1833C107.665 78.1195 106.698 76.7949 106.054 75.3068C105.353 73.6898 105.007 71.9404 105.038 70.1772C105.019 68.4064 105.377 66.6518 106.088 65.0309C106.731 63.5428 107.698 62.2183 108.918 61.1544C110.142 60.1212 111.541 59.3175 113.048 58.7818C116.251 57.6677 119.735 57.6677 122.939 58.7818C124.448 59.3131 125.848 60.1173 127.069 61.1544C128.283 62.22 129.244 63.5445 129.883 65.0309C130.599 66.6505 130.963 68.4052 130.948 70.1772C130.965 71.9441 130.601 73.6936 129.883 75.3068C129.239 76.7949 128.272 78.1195 127.052 79.1833C125.839 80.2321 124.438 81.0376 122.922 81.5559C121.344 82.1138 119.683 82.3963 118.01 82.3914ZM113.797 74.6886C114.349 75.2399 115.008 75.6724 115.732 75.9597C116.456 76.247 117.232 76.383 118.01 76.3595C118.786 76.3847 119.559 76.2493 120.281 75.9619C121.003 75.6744 121.659 75.241 122.206 74.6886C123.312 73.4479 123.924 71.8418 123.924 70.1772C123.924 68.5127 123.312 66.9065 122.206 65.6658C121.659 65.1134 121.003 64.68 120.281 64.3925C119.559 64.1051 118.786 63.9697 118.01 63.9949C117.232 63.9714 116.456 64.1074 115.732 64.3947C115.008 64.682 114.349 65.1145 113.797 65.6658C112.691 66.9065 112.08 68.5127 112.08 70.1772C112.08 71.8418 112.691 73.4479 113.797 74.6886Z" fill="var(--fill-0, white)"/>
<path id="Vector_13" d="M166.333 58.3306H173.843L166.516 82.0238H156.742L152.229 67.1195L147.7 82.0238H137.876L130.615 58.3306H138.209L143.204 75.5073L148.549 58.3306H156.209L161.587 75.5073L166.333 58.3306Z" fill="var(--fill-0, white)"/>
<path id="Vector_14" d="M186.498 57.9463C188.309 57.9244 190.107 58.2535 191.794 58.9154C193.349 59.5387 194.756 60.4838 195.923 61.6891C197.119 62.9731 198.002 64.5171 198.504 66.2005C199.09 68.142 199.299 70.1784 199.12 72.199H180.803C181.127 73.5103 181.862 74.6821 182.902 75.5408C183.905 76.398 185.181 76.8663 186.498 76.8608C187.632 76.8853 188.746 76.5668 189.696 75.947C190.647 75.3271 191.389 74.4345 191.827 73.3853L197.821 76.3261C196.736 78.239 195.115 79.7902 193.159 80.7873C191.111 81.8889 188.822 82.4631 186.498 82.4582C184.798 82.4687 183.108 82.1862 181.503 81.6228C179.989 81.1007 178.588 80.2956 177.373 79.2501C176.157 78.1892 175.19 76.871 174.542 75.3904C173.828 73.7704 173.471 72.0152 173.493 70.244C173.472 68.4677 173.83 66.7073 174.542 65.081C175.19 63.6004 176.157 62.2822 177.373 61.2213C178.591 60.1643 179.991 59.3378 181.503 58.7818C183.108 58.2184 184.798 57.9358 186.498 57.9463ZM190.178 64.7301C189.119 63.9185 187.823 63.4788 186.49 63.4788C185.157 63.4788 183.861 63.9185 182.802 64.7301C181.784 65.5873 181.085 66.7652 180.82 68.0719H192.176C191.882 66.7611 191.161 65.5856 190.128 64.7301H190.178Z" fill="var(--fill-0, white)"/>
<path id="Vector_15" d="M202.417 58.3306H209.078L209.394 61.121C210.154 60.0159 211.227 59.1658 212.475 58.6815C213.993 58.1476 215.596 57.8984 217.204 57.9463V63.9448C215.127 63.8039 213.065 64.3949 211.376 65.6157C210.732 66.1802 210.226 66.8844 209.894 67.6747C209.562 68.4651 209.414 69.3209 209.461 70.1772V82.0238H202.417V58.3306Z" fill="var(--fill-0, white)"/>
<path id="Vector_16" d="M181.153 20.2511C180.059 20.2467 179.011 19.8088 178.238 19.0326C177.464 18.2564 177.028 17.205 177.024 16.1073C177.021 15.2894 177.261 14.4892 177.713 13.8084C178.165 13.1276 178.808 12.5968 179.561 12.2835C180.314 11.9702 181.143 11.8884 181.942 12.0486C182.741 12.2088 183.475 12.6038 184.051 13.1833C184.817 13.962 185.247 15.0126 185.247 16.1073C185.247 17.202 184.817 18.2526 184.051 19.0314C183.677 19.4238 183.227 19.7346 182.729 19.9445C182.23 20.1544 181.694 20.2588 181.153 20.2511Z" fill="var(--fill-0, #1929FF)"/>
</g>
</svg>
