<svg width="590" height="931" viewBox="0 0 590 931" fill="none" xmlns="http://www.w3.org/2000/svg">
<g style="mix-blend-mode:lighten">
<path d="M236.004 569.285H235.845L134.061 469.193L117.922 485.063L2.237 598.983L120.159 714.945L252.143 585.155L236.004 569.285Z" fill="#1929FF"/>
<path d="M589.771 252.981L471.849 137.018L353.927 21.0555V20.8984L332.515 0L214.593 115.963L235.845 137.018H236.004L353.927 252.981L252.143 353.23L353.927 453.322L370.065 469.193L471.849 368.943L589.771 252.981Z" fill="#1929FF"/>
<path d="M353.927 485.063L252.143 585.155L353.767 685.247H353.927L236.004 801.21L221.943 815.037L339.865 931L353.927 917.33L471.849 801.21H472.009L589.771 685.247L370.065 469.193L353.927 485.063Z" fill="#1929FF"/>
<path d="M236.004 337.36V337.203L117.922 221.24L0 337.203L117.922 453.165H118.082L117.922 453.322L134.061 469.193L252.143 353.23L236.004 337.36Z" fill="#1929FF"/>
</g>
</svg>
