<svg width="1326" height="547" viewBox="0 0 1326 547" fill="none" xmlns="http://www.w3.org/2000/svg">
<g clip-path="url(#clip0_1141_12541)">
<path d="M135.79 334.16H135.698L77.1346 275.407L67.8491 284.723L1.28711 351.592L69.1362 419.66L145.076 343.475L135.79 334.16Z" fill="#1929FF"/>
<path d="M339.337 148.495L271.488 80.4271L203.639 12.3592V12.267L191.32 0L123.471 68.0679L135.698 80.4271H135.79L203.639 148.495L145.076 207.34L203.639 266.092L212.925 275.407L271.488 216.563L339.337 148.495Z" fill="#1929FF"/>
<path d="M203.639 284.723L145.076 343.475L203.547 402.228H203.639L135.79 470.296L127.7 478.412L195.549 546.48L203.639 538.456L271.488 470.296H271.58L339.337 402.228L212.925 275.407L203.639 284.723Z" fill="#1929FF"/>
<path d="M135.79 198.024V197.932L67.8491 129.864L0 197.932L67.8491 266H67.941L67.8491 266.092L77.1346 275.408L145.076 207.34L135.79 198.024Z" fill="#1929FF"/>
<path d="M548.768 171.369C556.725 173.713 563.658 178.686 568.443 185.48C574.121 193.184 577.095 202.557 576.901 212.136C577.089 218.347 575.901 224.523 573.42 230.217C570.94 235.911 567.23 240.982 562.559 245.063C552.86 253.752 540.257 258.461 527.255 258.252H437.433V91.2183H521.279C534.15 90.7705 546.75 94.995 556.767 103.116C561.42 106.985 565.126 111.874 567.597 117.408C570.067 122.941 571.238 128.97 571.017 135.029C571.353 143.468 569.177 151.816 564.765 159.009C561.041 164.883 555.38 169.257 548.768 171.369ZM478.897 123.408V159.009H512.637C514.878 159.031 517.099 158.583 519.157 157.693C521.215 156.804 523.065 155.493 524.589 153.844C526.195 152.148 527.452 150.151 528.288 147.967C529.124 145.783 529.523 143.455 529.462 141.116C529.531 138.79 529.136 136.474 528.299 134.304C527.462 132.134 526.201 130.154 524.589 128.48C523.061 126.844 521.208 125.547 519.149 124.674C517.09 123.8 514.872 123.369 512.637 123.408H478.897ZM518.521 225.786C520.77 225.827 523.002 225.397 525.076 224.523C527.15 223.65 529.019 222.352 530.565 220.713C532.178 219.003 533.439 216.99 534.275 214.79C535.111 212.59 535.506 210.246 535.438 207.893C535.507 205.567 535.112 203.251 534.275 201.081C533.438 198.91 532.177 196.93 530.565 195.257C529.034 193.592 527.17 192.271 525.094 191.381C523.018 190.491 520.778 190.052 518.521 190.092H478.897V225.786H518.521Z" fill="white"/>
<path d="M663.137 124.883C673.141 124.792 683.068 126.64 692.373 130.325C700.995 133.699 708.777 138.925 715.173 145.636C721.775 152.672 726.626 161.173 729.331 170.446C732.595 181.158 733.781 192.398 732.825 203.558H631.695C633.455 210.807 637.521 217.283 643.279 222.005C648.832 226.616 655.837 229.1 663.045 229.014C669.3 229.137 675.447 227.374 680.691 223.954C685.936 220.534 690.038 215.614 692.465 209.83L725.562 225.971C719.56 236.602 710.576 245.229 699.728 250.781C688.401 256.812 675.777 259.978 662.953 260.005C653.569 260.102 644.238 258.573 635.372 255.485C627.039 252.552 619.312 248.113 612.572 242.388C606.145 236.526 601.036 229.357 597.587 221.359C593.766 212.363 591.796 202.684 591.796 192.905C591.796 183.126 593.766 173.448 597.587 164.451C601.163 156.278 606.501 149.002 613.216 143.145C619.932 137.387 627.666 132.945 636.016 130.048C644.687 126.752 653.866 125.004 663.137 124.883ZM683.455 162.422C677.704 157.727 670.457 155.27 663.045 155.505C655.651 155.285 648.419 157.704 642.635 162.33C636.954 167.241 633.097 173.938 631.695 181.33H694.488C693.028 173.964 689.142 167.305 683.455 162.422Z" fill="white"/>
<path d="M960.368 89.2815V258.252H919.364V171.922L863.191 219.607L806.282 171.922V258.252H764.819V89.2815L862.731 167.126L960.368 89.2815Z" fill="white"/>
<path d="M980.686 127.005H1019.57V258.252H980.686V127.005Z" fill="white"/>
<path d="M1130.82 258.252V192.49C1131.4 183.521 1129.35 174.576 1124.93 166.757C1122.86 163.86 1120.08 161.543 1116.86 160.026C1113.64 158.509 1110.09 157.841 1106.55 158.087C1102.56 157.84 1098.57 158.547 1094.91 160.151C1091.25 161.755 1088.02 164.209 1085.49 167.311C1080.23 174.607 1077.63 183.499 1078.14 192.49V258.252H1038.88V127.005H1075.66L1077.4 144.345C1084.76 131.432 1098.64 124.883 1119.23 124.883C1126.57 124.233 1133.96 125.476 1140.68 128.494C1147.41 131.513 1153.25 136.207 1157.66 142.131C1166.43 157.391 1170.49 174.915 1169.34 192.49V258.252H1130.82Z" fill="white"/>
<path d="M1242.89 124.883C1252.04 124.683 1261.13 126.444 1269.55 130.048C1276.45 132.917 1282.25 137.928 1286.1 144.345V79.7815H1325.08V258.252H1288.3L1286.47 240.82C1282.9 247.41 1277.14 252.535 1270.19 255.301C1261.65 258.803 1252.48 260.469 1243.26 260.189C1232.44 260.323 1221.8 257.415 1212.55 251.796C1203.16 246.034 1195.55 237.762 1190.58 227.908C1185.04 217.073 1182.26 205.033 1182.49 192.859C1182.24 180.654 1185.02 168.58 1190.58 157.718C1195.57 147.855 1203.17 139.559 1212.55 133.738C1221.65 128.027 1232.15 124.962 1242.89 124.883ZM1253.55 226.801C1257.84 226.945 1262.11 226.201 1266.1 224.614C1270.08 223.027 1273.7 220.631 1276.72 217.577C1279.83 214.268 1282.24 210.367 1283.82 206.106C1285.4 201.844 1286.11 197.309 1285.91 192.767C1286.13 188.223 1285.42 183.683 1283.84 179.42C1282.26 175.156 1279.84 171.257 1276.72 167.956C1270.58 161.917 1262.33 158.535 1253.74 158.535C1245.14 158.535 1236.89 161.917 1230.75 167.956C1227.63 171.257 1225.21 175.156 1223.63 179.42C1222.05 183.683 1221.35 188.223 1221.56 192.767C1221.35 197.31 1222.05 201.85 1223.63 206.114C1225.21 210.377 1227.63 214.277 1230.75 217.577C1233.73 220.585 1237.29 222.954 1241.21 224.54C1245.13 226.125 1249.33 226.895 1253.55 226.801Z" fill="white"/>
<path d="M506.478 285.922C524.425 284.739 542.118 290.667 555.755 302.432C561.585 308.064 566.157 314.873 569.168 322.41C572.179 329.946 573.561 338.038 573.223 346.15C573.572 354.25 572.194 362.331 569.182 369.854C566.169 377.377 561.592 384.169 555.755 389.776C542.099 401.506 524.42 407.429 506.478 406.286H478.897V452.402H437.433V285.922H506.478ZM502.065 373.174C509.94 373.5 517.629 370.719 523.486 365.427C526.086 362.93 528.156 359.931 529.569 356.61C530.983 353.289 531.712 349.715 531.712 346.104C531.712 342.493 530.983 338.919 529.569 335.598C528.156 332.277 526.086 329.278 523.486 326.781C517.646 321.382 509.908 318.529 501.973 318.849H478.805V373.174H502.065Z" fill="white"/>
<path d="M651.553 454.801C642.164 454.866 632.833 453.306 623.972 450.189C615.616 447.307 607.879 442.863 601.172 437.092C594.435 431.219 589.094 423.908 585.543 415.694C581.671 406.768 579.759 397.111 579.935 387.378C579.826 377.603 581.801 367.918 585.727 358.97C589.278 350.756 594.619 343.445 601.356 337.572C608.111 331.869 615.834 327.433 624.156 324.475C641.843 318.326 661.079 318.326 678.766 324.475C687.099 327.409 694.827 331.847 701.567 337.572C708.27 343.455 713.579 350.765 717.104 358.97C721.061 367.911 723.067 377.597 722.988 387.378C723.077 397.131 721.07 406.789 717.104 415.694C713.552 423.908 708.212 431.219 701.475 437.092C694.78 442.881 687.04 447.327 678.674 450.189C669.963 453.268 660.79 454.828 651.553 454.801ZM628.293 412.281C631.342 415.324 634.976 417.712 638.976 419.298C642.975 420.883 647.255 421.634 651.553 421.504C655.839 421.643 660.107 420.896 664.093 419.31C668.079 417.723 671.696 415.331 674.721 412.281C680.827 405.433 684.203 396.567 684.203 387.378C684.203 378.19 680.827 369.324 674.721 362.475C671.696 359.426 668.079 357.034 664.093 355.447C660.107 353.86 655.839 353.113 651.553 353.252C647.255 353.122 642.975 353.873 638.976 355.459C634.976 357.045 631.342 359.432 628.293 362.475C622.187 369.324 618.812 378.19 618.812 387.378C618.812 396.567 622.187 405.433 628.293 412.281Z" fill="white"/>
<path d="M918.352 321.985H959.816L919.364 452.771H865.397L840.482 370.5L815.476 452.771H761.233L721.149 321.985H763.072L790.653 416.801L820.164 321.985H862.455L892.151 416.801L918.352 321.985Z" fill="white"/>
<path d="M1029.69 319.864C1039.69 319.743 1049.61 321.559 1058.92 325.213C1067.51 328.653 1075.28 333.87 1081.72 340.524C1088.32 347.612 1093.2 356.135 1095.97 365.427C1099.21 376.144 1100.36 387.384 1099.38 398.538H998.245C1000.03 405.777 1004.09 412.245 1009.83 416.985C1015.37 421.717 1022.41 424.302 1029.69 424.271C1035.94 424.407 1042.1 422.649 1047.34 419.227C1052.59 415.806 1056.69 410.878 1059.11 405.087L1092.2 421.32C1086.21 431.879 1077.26 440.442 1066.46 445.946C1055.15 452.027 1042.52 455.196 1029.69 455.169C1020.3 455.227 1010.97 453.668 1002.11 450.558C993.75 447.676 986.014 443.232 979.306 437.461C972.592 431.604 967.254 424.328 963.677 416.155C959.735 407.213 957.76 397.524 957.885 387.747C957.769 377.942 959.744 368.225 963.677 359.247C967.254 351.074 972.592 343.798 979.306 337.941C986.033 332.107 993.758 327.544 1002.11 324.475C1010.97 321.365 1020.3 319.806 1029.69 319.864ZM1050.01 357.31C1044.16 352.83 1037 350.403 1029.64 350.403C1022.28 350.403 1015.13 352.83 1009.28 357.31C1003.66 362.042 999.801 368.544 998.337 375.757H1061.04C1059.41 368.521 1055.43 362.033 1049.73 357.31H1050.01Z" fill="white"/>
<path d="M1117.58 321.985H1154.35L1156.1 337.388C1160.29 331.288 1166.22 326.595 1173.11 323.922C1181.49 320.975 1190.34 319.599 1199.22 319.864V352.975C1187.75 352.198 1176.37 355.46 1167.04 362.199C1163.49 365.315 1160.69 369.202 1158.86 373.565C1157.03 377.927 1156.21 382.651 1156.47 387.378V452.771H1117.58V321.985Z" fill="white"/>
<path d="M1000.18 111.786C994.137 111.762 988.351 109.344 984.081 105.06C979.81 100.776 977.4 94.9717 977.376 88.9126C977.363 84.3976 978.688 79.9807 981.183 76.2226C983.677 72.4644 987.228 69.5346 991.385 67.8051C995.543 66.0756 1000.12 65.6243 1004.53 66.5086C1008.95 67.393 1013 69.573 1016.17 72.7719C1020.41 77.0706 1022.78 82.8699 1022.78 88.9126C1022.78 94.9554 1020.41 100.755 1016.17 105.053C1014.11 107.219 1011.63 108.935 1008.87 110.094C1006.12 111.252 1003.16 111.828 1000.18 111.786Z" fill="#1929FF"/>
</g>
<defs>
<clipPath id="clip0_1141_12541">
<rect width="1325.08" height="546.48" fill="white"/>
</clipPath>
</defs>
</svg>
