<svg xmlns="http://www.w3.org/2000/svg" viewBox="0 0 60 40" width="60" height="40">
  <rect width="60" height="40" fill="#DE2910"/>
  <g fill="#FFDE00">
    <polygon points="12,6.7 13.5,11 18,11 14.3,13.8 15.7,18 12,15.2 8.3,18 9.7,13.8 6,11 10.5,11"/>
    <polygon points="22,3 22.6,5 24.5,5 23,6.2 23.5,8 22,6.8 20.5,8 21,6.2 19.5,5 21.4,5"/>
    <polygon points="26,7 26.6,9 28.5,9 27,10.2 27.5,12 26,10.8 24.5,12 25,10.2 23.5,9 25.4,9"/>
    <polygon points="26,13 26.6,15 28.5,15 27,16.2 27.5,18 26,16.8 24.5,18 25,16.2 23.5,15 25.4,15"/>
    <polygon points="22,17 22.6,19 24.5,19 23,20.2 23.5,22 22,20.8 20.5,22 21,20.2 19.5,19 21.4,19"/>
  </g>
</svg>
